<svg width="70" height="70" viewBox="0 0 70 70" fill="none" xmlns="http://www.w3.org/2000/svg">
<path fill-rule="evenodd" clip-rule="evenodd" d="M8 15C8 12.7909 9.79086 11 12 11H58C60.2091 11 62 12.7909 62 15V48C62 50.2091 60.2091 52 58 52H35C34.1015 52 32.5378 52.4709 31.3949 53.4012C31.3855 53.4089 31.3759 53.4164 31.3663 53.4237L20.8617 61.3563C20.1094 62.0471 19.1017 62.1331 18.3084 61.8422C17.4962 61.5443 16.7527 60.7835 16.7527 59.6899V53.0617C16.7527 52.8733 16.6561 52.5704 16.4524 52.3123C16.2458 52.0504 16.0678 52 16 52H12C9.79086 52 8 50.2091 8 48V15ZM12 13C10.8954 13 10 13.8954 10 15V48C10 49.1046 10.8954 50 12 50H16C16.8953 50 17.5937 50.5299 18.0226 51.0736C18.4546 51.6211 18.7527 52.3491 18.7527 53.0617V59.6899C18.7527 59.7734 18.7987 59.8918 18.997 59.9645C19.1965 60.0376 19.3928 59.9962 19.5198 59.873C19.5493 59.8444 19.5805 59.8176 19.6133 59.7929L30.147 51.8382C31.632 50.636 33.6293 50 35 50H58C59.1046 50 60 49.1046 60 48V15C60 13.8954 59.1046 13 58 13H12Z" fill="#292F36"/>
<path fill-rule="evenodd" clip-rule="evenodd" d="M18 23C18 22.4477 18.4477 22 19 22H28C28.5523 22 29 22.4477 29 23C29 23.5523 28.5523 24 28 24H19C18.4477 24 18 23.5523 18 23Z" fill="#292F36"/>
<path fill-rule="evenodd" clip-rule="evenodd" d="M18 32C18 31.4477 18.4477 31 19 31H35C35.5523 31 36 31.4477 36 32C36 32.5523 35.5523 33 35 33H19C18.4477 33 18 32.5523 18 32Z" fill="#292F36"/>
<path fill-rule="evenodd" clip-rule="evenodd" d="M18 41C18 40.4477 18.4477 40 19 40H35C35.5523 40 36 40.4477 36 41C36 41.5523 35.5523 42 35 42H19C18.4477 42 18 41.5523 18 41Z" fill="#292F36"/>
<path d="M44.202 35.458C44.202 34.6685 44.2786 33.9932 44.4318 33.4322C44.6069 32.8505 44.8914 32.2999 45.2854 31.7805C45.7012 31.2611 46.2593 30.7209 46.9596 30.1599C47.8131 29.4743 48.4697 28.9029 48.9293 28.4458C49.4108 27.9887 49.75 27.542 49.947 27.1057C50.1439 26.6694 50.2424 26.1396 50.2424 25.5163C50.2424 24.519 49.9032 23.7502 49.2247 23.21C48.5463 22.6698 47.5614 22.3997 46.2702 22.3997C45.1978 22.3997 44.2458 22.5348 43.4141 22.8049C42.5825 23.0542 41.7837 23.3555 41.0177 23.7087L40 21.5271C40.8754 21.0908 41.8384 20.7272 42.8889 20.4363C43.9613 20.1454 45.154 20 46.4672 20C48.5463 20 50.1549 20.4883 51.2929 21.4648C52.431 22.4413 53 23.771 53 25.4539C53 26.3889 52.8359 27.1888 52.5076 27.8537C52.2012 28.4977 51.7525 29.1003 51.1616 29.6612C50.5926 30.2014 49.9141 30.7832 49.1263 31.4065C48.404 31.9883 47.846 32.4973 47.452 32.9336C47.08 33.3699 46.8283 33.8062 46.697 34.2425C46.5657 34.6581 46.5 35.1671 46.5 35.7696V36.2995H44.202V35.458ZM43.447 40.8808C43.447 40.112 43.633 39.5718 44.0051 39.2602C44.399 38.9485 44.8914 38.7927 45.4823 38.7927C46.0295 38.7927 46.5 38.9485 46.8939 39.2602C47.2879 39.5718 47.4848 40.112 47.4848 40.8808C47.4848 41.6287 47.2879 42.1689 46.8939 42.5014C46.5 42.8338 46.0295 43 45.4823 43C44.8914 43 44.399 42.8338 44.0051 42.5014C43.633 42.1689 43.447 41.6287 43.447 40.8808Z" fill="#FCC700"/>
</svg>
