<svg width="70" height="70" viewBox="0 0 70 70" fill="none" xmlns="http://www.w3.org/2000/svg">
<path fill-rule="evenodd" clip-rule="evenodd" d="M8 15C8 14.4477 8.44772 14 9 14H18.6121C19.1644 14 19.6121 14.4477 19.6121 15C19.6121 15.5523 19.1644 16 18.6121 16H10V60H60V16H53.2C52.6477 16 52.2 15.5523 52.2 15C52.2 14.4477 52.6477 14 53.2 14H61C61.5523 14 62 14.4477 62 15V61C62 61.5523 61.5523 62 61 62H9C8.44772 62 8 61.5523 8 61V15Z" fill="#292F36"/>
<path fill-rule="evenodd" clip-rule="evenodd" d="M43.5913 35.0872C43.9512 35.2482 44.1829 35.6057 44.1829 36V48.9987H48C48.5523 48.9987 49 49.4465 49 49.9987C49 50.551 48.5523 50.9987 48 50.9987H43.2149C43.2043 50.9991 43.1936 50.9992 43.1829 50.9992C43.1723 50.9992 43.1616 50.9991 43.151 50.9987H38.3659C37.8136 50.9987 37.3659 50.551 37.3659 49.9987C37.3659 49.4465 37.8136 48.9987 38.3659 48.9987H42.1829V38.2357L39.0325 41.0529C38.6208 41.421 37.9886 41.3857 37.6205 40.974C37.2523 40.5624 37.2876 39.9302 37.6993 39.562L42.5164 35.2546C42.8103 34.9917 43.2313 34.9262 43.5913 35.0872ZM22 37.443L21.3223 36.7077C20.9162 37.082 20.8904 37.7147 21.2647 38.1208C21.6374 38.5251 22.2663 38.5524 22.6726 38.183C22.6731 38.1826 22.6738 38.1819 22.6749 38.181C22.6797 38.1769 22.6901 38.1679 22.7061 38.1548C22.7382 38.1285 22.7924 38.0858 22.868 38.032C23.0194 37.9241 23.2546 37.7729 23.5676 37.6195C24.1924 37.3133 25.1232 37 26.3233 37C27.5426 37 28.5188 37.3107 29.1592 37.7421C29.7993 38.1732 30.044 38.67 30.044 39.1014C30.044 39.7501 29.862 40.3651 29.2869 40.8462C28.6765 41.3569 27.4686 41.8489 25.1191 41.8489C24.5668 41.8489 24.1191 42.2966 24.1191 42.8489C24.1191 43.4012 24.5668 43.8489 25.1191 43.8489C27.4698 43.8489 28.6774 44.3388 29.2875 44.8484C29.8613 45.3277 30.044 45.9419 30.044 46.5971C30.044 47.0608 29.7708 47.643 29.1117 48.1453C28.464 48.6389 27.5008 49 26.3233 49C25.1609 49 24.2537 48.6358 23.6349 48.2714C23.3251 48.089 23.0907 47.9082 22.938 47.7775C22.862 47.7124 22.807 47.6604 22.7739 47.6279C22.7574 47.6116 22.7464 47.6003 22.7411 47.5947C22.7397 47.5932 22.7386 47.5921 22.738 47.5915L22.7402 47.5938L22.7411 47.5947C22.7397 47.5932 22.7386 47.5921 22.738 47.5915C22.3673 47.1861 21.7381 47.1554 21.3298 47.5241C20.9199 47.8942 20.8877 48.5266 21.2578 48.9365L22 48.2663C21.2578 48.9365 21.2575 48.9361 21.2578 48.9365L21.2604 48.9393L21.2636 48.9428L21.2718 48.9517L21.2954 48.9768C21.3144 48.9966 21.3397 49.0225 21.3714 49.0537C21.4347 49.1159 21.5236 49.1994 21.6374 49.2968C21.8645 49.4912 22.1938 49.7439 22.6201 49.9949C23.4735 50.4974 24.7279 51 26.3233 51C27.9036 51 29.3008 50.5158 30.324 49.736C31.3358 48.9649 32.044 47.8457 32.044 46.5971C32.044 45.5401 31.727 44.2802 30.5697 43.3135C30.3675 43.1446 30.1448 42.989 29.9003 42.8474C30.145 42.7054 30.368 42.5494 30.5703 42.3801C31.7263 41.4129 32.044 40.1542 32.044 39.1014C32.044 37.8314 31.3073 36.7775 30.2764 36.0832C29.246 35.3893 27.8618 35 26.3233 35C24.7657 35 23.5349 35.4082 22.6874 35.8236C22.2643 36.0309 21.9357 36.2405 21.7074 36.4031C21.5931 36.4846 21.5035 36.5546 21.4392 36.6073C21.407 36.6336 21.3811 36.6556 21.3616 36.6726L21.3372 36.6942L21.3285 36.702L21.3251 36.7051L21.3236 36.7065C21.3233 36.7068 21.3223 36.7077 22 37.443Z" fill="#FCC700"/>
<path fill-rule="evenodd" clip-rule="evenodd" d="M23 15C23 14.4477 23.4477 14 24 14H47C47.5523 14 48 14.4477 48 15C48 15.5523 47.5523 16 47 16H24C23.4477 16 23 15.5523 23 15Z" fill="#292F36"/>
<path fill-rule="evenodd" clip-rule="evenodd" d="M8 25C8 24.4477 8.44772 24 9 24H61C61.5523 24 62 24.4477 62 25C62 25.5523 61.5523 26 61 26H9C8.44772 26 8 25.5523 8 25Z" fill="#292F36"/>
<path fill-rule="evenodd" clip-rule="evenodd" d="M19 8C19.5523 8 20 8.44772 20 9V18C20 18.5523 19.5523 19 19 19C18.4477 19 18 18.5523 18 18V9C18 8.44772 18.4477 8 19 8Z" fill="#292F36"/>
<path fill-rule="evenodd" clip-rule="evenodd" d="M47 8C47.5523 8 48 8.44772 48 9V18C48 18.5523 47.5523 19 47 19C46.4477 19 46 18.5523 46 18V9C46 8.44772 46.4477 8 47 8Z" fill="#292F36"/>
</svg>
