<svg width="70" height="70" viewBox="0 0 70 70" fill="none" xmlns="http://www.w3.org/2000/svg">
<path fill-rule="evenodd" clip-rule="evenodd" d="M14.0069 32C14.5592 32 15.0069 32.4477 15.0069 33V58.76C15.0069 58.9296 15.0048 59.065 15.0028 59.1881C15.0005 59.3353 14.9985 59.4651 15.0007 59.6151C15.0033 59.7954 15.0132 59.9172 15.0264 59.9995C15.0372 59.9998 15.0489 60 15.0616 60H54.9382C54.9509 60 54.9626 59.9998 54.9733 59.9995C54.9865 59.9172 54.9964 59.7954 54.9991 59.6151C55.0013 59.4651 54.9992 59.3353 54.9969 59.1881C54.995 59.0649 54.9928 58.9296 54.9928 58.76V33C54.9928 32.4477 55.4405 32 55.9928 32C56.5451 32 56.9928 32.4477 56.9928 33V58.76C56.9928 58.8574 56.9944 58.9767 56.996 59.1015C56.9985 59.2888 57.0011 59.4884 56.9988 59.6444C56.9946 59.9317 56.9762 60.2774 56.8854 60.6074C56.7898 60.9546 56.5971 61.345 56.2052 61.631C55.8225 61.9103 55.3726 62 54.9382 62H15.0616C14.6271 62 14.1772 61.9103 13.7945 61.631C13.4026 61.345 13.2099 60.9546 13.1143 60.6074C13.0235 60.2774 13.0051 59.9317 13.0009 59.6444C12.9986 59.4883 13.0012 59.2887 13.0037 59.1014C13.0053 58.9767 13.0069 58.8574 13.0069 58.76V33C13.0069 32.4477 13.4546 32 14.0069 32ZM55.0759 59.9876C55.076 59.9876 55.0753 59.9879 55.0738 59.9883L55.0759 59.9876ZM14.9238 59.9876C14.9238 59.9876 14.9245 59.9878 14.9259 59.9883L14.9238 59.9876Z" fill="#292F36"/>
<path fill-rule="evenodd" clip-rule="evenodd" d="M8.81886 21.3547C9.20294 21.0855 9.65154 21 10.0858 21H59.9139C60.3482 21 60.7968 21.0855 61.1808 21.3547C61.5786 21.6335 61.7801 22.0194 61.8807 22.3707C61.9756 22.7015 61.9945 23.047 61.9988 23.3305C62.0011 23.484 61.9984 23.6826 61.9959 23.8677C61.9942 23.99 61.9927 24.1063 61.9927 24.2V30.8C61.9927 30.8937 61.9942 31.01 61.9959 31.1323C61.9984 31.3174 62.0011 31.516 61.9988 31.6695C61.9945 31.953 61.9756 32.2985 61.8807 32.6293C61.7801 32.9806 61.5786 33.3665 61.1808 33.6453C60.7968 33.9145 60.3482 34 59.9139 34H51.9517C51.3994 34 50.9517 33.5523 50.9517 33C50.9517 32.4477 51.3994 32 51.9517 32H59.9139C59.9371 32 59.9574 31.9994 59.975 31.9985C59.9871 31.922 59.9965 31.8081 59.999 31.639C60.0013 31.4918 59.9992 31.366 59.9968 31.2226C59.9949 31.102 59.9927 30.9689 59.9927 30.8V24.2C59.9927 24.0311 59.9949 23.898 59.9968 23.7774C59.9992 23.634 60.0013 23.5082 59.999 23.361C59.9965 23.1919 59.9871 23.078 59.975 23.0015C59.9574 23.0006 59.9371 23 59.9139 23H10.0858C10.0626 23 10.0423 23.0006 10.0247 23.0015C10.0126 23.078 10.0032 23.1919 10.0007 23.361C9.99842 23.5083 10.0005 23.634 10.0029 23.7774C10.0048 23.898 10.007 24.0311 10.007 24.2V30.8C10.007 30.9689 10.0048 31.102 10.0029 31.2226C10.0005 31.366 9.99842 31.4918 10.0007 31.639C10.0032 31.8081 10.0126 31.922 10.0247 31.9985C10.0423 31.9994 10.0626 32 10.0858 32H46.3011C46.8534 32 47.3011 32.4477 47.3011 33C47.3011 33.5523 46.8534 34 46.3011 34H10.0858C9.65154 34 9.20294 33.9145 8.81886 33.6453C8.42107 33.3665 8.21965 32.9806 8.11895 32.6293C8.02413 32.2985 8.00522 31.953 8.0009 31.6695C7.99855 31.516 8.00126 31.3174 8.00379 31.1323C8.00545 31.01 8.00704 30.8936 8.00704 30.8V24.2C8.00704 24.1064 8.00545 23.99 8.00379 23.8677C8.00126 23.6826 7.99855 23.484 8.0009 23.3305C8.00522 23.047 8.02413 22.7015 8.11895 22.3707C8.21965 22.0194 8.42107 21.6335 8.81886 21.3547ZM9.92632 31.985C9.92634 31.985 9.92684 31.9852 9.9278 31.9855L9.92632 31.985ZM60.0734 23.015C60.0734 23.015 60.0729 23.0148 60.0719 23.0145L60.0734 23.015ZM60.0734 31.985C60.0734 31.985 60.0729 31.9852 60.0719 31.9855L60.0734 31.985ZM9.92779 23.0145C9.92684 23.0148 9.92634 23.015 9.92632 23.015C9.92631 23.015 9.92679 23.0148 9.92779 23.0145Z" fill="#292F36"/>
<path fill-rule="evenodd" clip-rule="evenodd" d="M35 21C35.5523 21 36 21.4477 36 22V61C36 61.5523 35.5523 62 35 62C34.4477 62 34 61.5523 34 61V22C34 21.4477 34.4477 21 35 21Z" fill="#292F36"/>
<path fill-rule="evenodd" clip-rule="evenodd" d="M23.5796 10.405C22.8773 10.6709 22.4352 11.0378 22.2038 11.4628C22.0447 11.7565 21.9045 12.4722 22.0832 13.491C22.2552 14.4719 22.7074 15.6247 23.5705 16.7273C25.1786 18.7818 28.3051 20.7681 33.9788 20.9811C33.6418 12.9562 29.3249 10 26.2058 10C25.1863 10 24.2839 10.1383 23.5796 10.405ZM22.8714 8.53457C23.8681 8.15718 25.0268 8 26.2058 8C30.9387 8 35.9999 12.5241 35.9999 22C35.9999 22.5523 35.5521 23 34.9999 23C28.2098 23 24.16 20.7254 21.9955 17.96C20.9253 16.5926 20.3407 15.1335 20.1133 13.8365C19.8925 12.5778 19.9898 11.3496 20.4462 10.5085L20.4466 10.5077C20.9739 9.53834 21.8728 8.91267 22.8714 8.53457Z" fill="#FCC700"/>
<path fill-rule="evenodd" clip-rule="evenodd" d="M34 22C34 12.5241 39.0612 8 43.794 8C44.9731 8 46.1318 8.15718 47.1285 8.53457C48.1271 8.91267 49.026 9.53834 49.5532 10.5077L49.5537 10.5085C50.0101 11.3496 50.1074 12.5778 49.8866 13.8365C49.6591 15.1335 49.0746 16.5926 48.0043 17.96C45.8398 20.7254 41.79 23 35 23C34.4477 23 34 22.5523 34 22ZM36.021 20.9811C41.6947 20.7681 44.8212 18.7818 46.4294 16.7273C47.2924 15.6247 47.7446 14.4719 47.9167 13.491C48.0954 12.4721 47.9551 11.7563 47.7959 11.4626C47.5646 11.0377 47.1225 10.6708 46.4203 10.405C45.7159 10.1383 44.8135 10 43.794 10C40.675 10 36.3581 12.9562 36.021 20.9811Z" fill="#FCC700"/>
</svg>
