<svg width="70" height="70" viewBox="0 0 70 70" fill="none" xmlns="http://www.w3.org/2000/svg">
<path fill-rule="evenodd" clip-rule="evenodd" d="M13 10C13 8.89543 13.8954 8 15 8H54C55.1046 8 56 8.89543 56 10V28.4568C56 29.009 55.5523 29.4568 55 29.4568C54.4477 29.4568 54 29.009 54 28.4568V10L15 10V60L54 60V50.3636C54 49.8114 54.4477 49.3636 55 49.3636C55.5523 49.3636 56 49.8114 56 50.3636V60C56 61.1046 55.1046 62 54 62H15C13.8954 62 13 61.1046 13 60V10Z" fill="#292F36"/>
<path fill-rule="evenodd" clip-rule="evenodd" d="M61.6873 30.4198C61.6872 30.4199 61.6874 30.4197 61.6873 30.4198L61.0429 31.096L64.0043 34.1938L64.576 33.5939C64.5765 33.5934 64.5769 33.5929 64.5774 33.5924C65.1437 32.9906 65.137 32.0119 64.5805 31.4298L63.615 30.4198C63.08 29.8602 62.2224 29.8604 61.6873 30.4198ZM62.6231 35.6433L59.6617 32.5455L46.9469 45.8891L46.2456 49.7414L49.8522 49.0458L62.6231 35.6433ZM60.2416 29.0377C61.5644 27.6541 63.7379 27.6541 65.0606 29.0377L66.0262 30.0477C67.327 31.4084 67.3207 33.5992 66.0307 34.9664L66.0273 34.97L51.0795 50.657C50.936 50.8076 50.7492 50.9097 50.5449 50.9491L45.1894 51.9819C44.8653 52.0444 44.5312 51.943 44.2966 51.7108C44.062 51.4786 43.9571 51.1456 44.0162 50.8209L45.0329 45.2367C45.0678 45.0447 45.1581 44.8672 45.2927 44.7259L60.2416 29.0377Z" fill="#292F36"/>
<path fill-rule="evenodd" clip-rule="evenodd" d="M33 21C33 20.4477 33.4477 20 34 20H47C47.5523 20 48 20.4477 48 21C48 21.5523 47.5523 22 47 22H34C33.4477 22 33 21.5523 33 21Z" fill="#292F36"/>
<path fill-rule="evenodd" clip-rule="evenodd" d="M33 35C33 34.4477 33.4477 34 34 34H47C47.5523 34 48 34.4477 48 35C48 35.5523 47.5523 36 47 36H34C33.4477 36 33 35.5523 33 35Z" fill="#292F36"/>
<path fill-rule="evenodd" clip-rule="evenodd" d="M29.6204 17.2158C30.0536 17.5584 30.1269 18.1873 29.7843 18.6205L25.0376 24.6205C24.8617 24.8428 24.5997 24.98 24.3168 24.998C24.0339 25.016 23.7567 24.9131 23.554 24.7149L20.3007 21.5323C19.9059 21.1461 19.899 20.5129 20.2852 20.1181C20.6714 19.7233 21.3045 19.7164 21.6993 20.1026L24.1584 22.5083L28.2157 17.3796C28.5584 16.9465 29.1873 16.8731 29.6204 17.2158Z" fill="#FCC700"/>
<path fill-rule="evenodd" clip-rule="evenodd" d="M29.6204 31.2158C30.0536 31.5584 30.1269 32.1873 29.7843 32.6205L25.0376 38.6205C24.8616 38.8429 24.5994 38.9802 24.3164 38.9981C24.0333 39.0159 23.7559 38.9127 23.5534 38.7142L20.3 35.5255C19.9056 35.1389 19.8992 34.5058 20.2858 34.1113C20.6724 33.7169 21.3056 33.7106 21.7 34.0972L24.1591 36.5074L28.2157 31.3796C28.5584 30.9465 29.1873 30.8731 29.6204 31.2158Z" fill="#FCC700"/>
<path fill-rule="evenodd" clip-rule="evenodd" d="M33 49C33 48.4477 33.4477 48 34 48H38C38.5523 48 39 48.4477 39 49C39 49.5523 38.5523 50 38 50H34C33.4477 50 33 49.5523 33 49Z" fill="#292F36"/>
<path fill-rule="evenodd" clip-rule="evenodd" d="M29.6885 45.2748C30.0891 45.655 30.1055 46.288 29.7253 46.6885L24.9786 51.6885C24.6185 52.0678 24.0269 52.1056 23.6215 51.7751L20.3682 49.1229C19.9401 48.7739 19.876 48.144 20.2249 47.716C20.5739 47.2879 21.2038 47.2238 21.6319 47.5727L24.1665 49.639L28.2748 45.3115C28.655 44.911 29.288 44.8945 29.6885 45.2748Z" fill="#FCC700"/>
</svg>
