<svg width="70" height="70" viewBox="0 0 70 70" fill="none" xmlns="http://www.w3.org/2000/svg">
<path fill-rule="evenodd" clip-rule="evenodd" d="M8 22C8 21.4477 8.44772 21 9 21H10.1304C10.6827 21 11.1304 21.4477 11.1304 22C11.1304 22.5523 10.6827 23 10.1304 23H10V53.6364C10 53.6463 10.003 53.6646 10.0265 53.6872C10.0505 53.7104 10.0862 53.7273 10.1304 53.7273H28.8278C30.2013 53.7273 31.466 54.5739 31.9193 55.8908L32.0187 56.1678L32.0238 56.1825C32.1834 56.6502 32.6571 57 33.2252 57H36.7522C37.3202 57 37.794 56.6502 37.9536 56.1825L37.9587 56.1678L38.0581 55.8908C38.5114 54.5739 39.7761 53.7273 41.1496 53.7273H59.8696C59.9138 53.7273 59.9495 53.7104 59.9735 53.6872C59.997 53.6646 60 53.6463 60 53.6364V23H59.8696C59.3173 23 58.8696 22.5523 58.8696 22C58.8696 21.4477 59.3173 21 59.8696 21H61C61.5523 21 62 21.4477 62 22V53.6364C62 54.8219 61.0097 55.7273 59.8696 55.7273H41.1496C40.5815 55.7273 40.1077 56.0771 39.9482 56.5447L39.943 56.5594L39.8437 56.8364C39.3904 58.1533 38.1257 59 36.7522 59H33.2252C31.8517 59 30.587 58.1533 30.1337 56.8364L30.0344 56.5594L30.0292 56.5447C29.8697 56.0771 29.3959 55.7273 28.8278 55.7273H10.1304C8.99026 55.7273 8 54.8219 8 53.6364V22Z" fill="#292F36"/>
<path fill-rule="evenodd" clip-rule="evenodd" d="M29.6447 16C29.7379 15.9995 29.8307 16.012 29.9204 16.0371C32.0559 16.6357 33.5141 17.5148 34.453 18.2712C34.9212 18.6484 35.2572 18.9926 35.4823 19.2522C35.6101 19.3996 35.7337 19.5525 35.8401 19.7163L35.8432 19.7211L35.8445 19.7233L35.8451 19.7242C35.8451 19.7242 34.4339 20.616 35.8457 19.7252C36.1404 20.1923 36.0007 20.8098 35.5336 21.1045C35.0811 21.39 34.4874 21.2678 34.1828 20.8352C34.1747 20.8237 34.1669 20.812 34.1592 20.8001L34.1564 20.7957L34.1579 20.7981C34.1539 20.7921 34.1441 20.7782 34.1293 20.758C34.0995 20.7177 34.0477 20.6505 33.9713 20.5624C33.8185 20.3862 33.5674 20.126 33.1983 19.8287C32.4803 19.2503 31.3041 18.5216 29.5134 18.0008L29.6563 18L29.3806 17.9629C29.4253 17.9754 29.4695 17.988 29.5134 18.0008L16 18.0789V47.8259H29.8495C29.9534 47.8259 30.0568 47.8421 30.1557 47.8739C32.2885 48.5601 33.6866 49.4103 34.5696 50.1227C35.0102 50.4781 35.3193 50.7966 35.5254 51.0387C35.6284 51.1597 35.7055 51.2612 35.7603 51.3385C35.7877 51.3771 35.8094 51.4096 35.8261 51.4353C35.8345 51.4482 35.8415 51.4594 35.8473 51.4688L35.8552 51.4816L35.8584 51.487L35.8599 51.4895L35.8605 51.4906C35.8605 51.4906 35.8612 51.4917 35 52L34.1388 52.5083C34.1413 52.5126 34.1439 52.5168 34.1465 52.5211C34.1443 52.5178 34.1386 52.5091 34.1289 52.4955C34.1075 52.4652 34.0666 52.4103 34.0027 52.3354C33.8753 52.1857 33.6552 51.9547 33.3138 51.6793C32.6505 51.1441 31.5163 50.4311 29.6904 49.8259H29.8495L29.5432 49.7778C29.5928 49.7938 29.6418 49.8098 29.6904 49.8259H15C14.4477 49.8259 14 49.3782 14 48.8259V17.0846C14 16.5346 14.4442 16.0878 14.9942 16.0847L29.6447 16ZM34.1465 52.5211C34.4306 52.9867 35.0369 53.1394 35.5083 52.8612C35.9839 52.5805 36.1419 51.9674 35.8612 51.4917L35 52C34.1388 52.5083 34.1394 52.5093 34.1394 52.5093L34.14 52.5104L34.1412 52.5123L34.1432 52.5156L34.1465 52.5211C34.1479 52.5233 34.1471 52.522 34.1471 52.522L34.1465 52.5211Z" fill="#292F36"/>
<path fill-rule="evenodd" clip-rule="evenodd" d="M50.5521 11.1664C50.8317 11.3516 50.9998 11.6647 50.9998 12V43.4167C50.9998 43.8502 50.7204 44.2343 50.308 44.368L40.2864 47.6155C38.6145 48.1883 37.5347 49.3342 36.8608 50.3761C36.5242 50.8965 36.2963 51.3802 36.1538 51.7308C36.0827 51.9054 36.0336 52.0452 36.0033 52.1376C35.9881 52.1837 35.9777 52.2179 35.9716 52.2384L35.966 52.2576C35.8234 52.7908 35.2755 53.1085 34.7421 52.9663C34.2085 52.824 33.8912 52.276 34.0335 51.7424C34.0508 51.6797 34.0683 51.6196 34.1032 51.5134C34.1464 51.3818 34.2111 51.1986 34.3011 50.9773C34.4805 50.5361 34.7633 49.9363 35.1814 49.2899C36.0159 47.9997 37.4194 46.4807 39.6474 45.7203L39.6622 45.7154L48.9998 42.6895V13.5091L40.5522 17.0843C40.518 17.0987 40.483 17.1113 40.4475 17.1218C38.6583 17.6539 37.4905 18.4176 36.7828 19.0225C36.4277 19.326 36.1855 19.5921 36.0377 19.773C36.0243 19.7894 36.0116 19.8051 35.9998 19.8201V43.3902C35.9998 43.9425 35.552 44.3902 34.9998 44.3902C34.4475 44.3902 33.9998 43.9425 33.9998 43.3902V19.6585C33.9998 19.6319 34.0008 19.6056 34.0028 19.5795C33.9868 19.3801 34.0302 19.1739 34.1403 18.9889L34.2179 19.035C34.1403 18.9887 34.1408 18.988 34.1408 18.988L34.1414 18.987L34.1426 18.9849L34.1456 18.9801L34.1529 18.968C34.1585 18.959 34.1655 18.9479 34.1739 18.9347C34.1907 18.9085 34.2133 18.8744 34.2419 18.8332C34.2992 18.7508 34.3807 18.64 34.4891 18.5073C34.706 18.242 35.0305 17.8892 35.4834 17.5021C36.3837 16.7325 37.7805 15.8369 39.8231 15.2211L49.61 11.0791C49.9188 10.9484 50.2726 10.9812 50.5521 11.1664ZM35.8548 20.0186L35.8559 20.0168L35.8573 20.0143L35.8583 20.0128" fill="#FCC700"/>
<path fill-rule="evenodd" clip-rule="evenodd" d="M52.7143 18C52.7143 17.4477 53.162 17 53.7143 17H55C55.5523 17 56 17.4477 56 18V50C56 50.5523 55.5523 51 55 51H47C46.4477 51 46 50.5523 46 50C46 49.4477 46.4477 49 47 49H54V19H53.7143C53.162 19 52.7143 18.5523 52.7143 18Z" fill="#292F36"/>
</svg>
