<?xml version="1.0" encoding="utf-8"?>
<!-- Generator: Adobe Illustrator 28.2.0, SVG Export Plug-In . SVG Version: 6.00 Build 0)  -->
<svg version="1.1" id="레이어_1" xmlns="http://www.w3.org/2000/svg" xmlns:xlink="http://www.w3.org/1999/xlink" x="0px"
	 y="0px" viewBox="0 0 122.52 34" style="enable-background:new 0 0 122.52 34;" xml:space="preserve">
<style type="text/css">
	.st0{fill:#231815;}
	.st1{fill:#3E3A39;}
	.st2{fill:#FDD000;}
	.st3{fill:#FFFFFF;}
	.st4{fill:none;stroke:#231815;stroke-width:0.25;stroke-miterlimit:10;}
</style>
<g>
	<path class="st0" d="M-213.67,377.69l-5.82,6.07l-0.67-0.71l5.82-6.05L-213.67,377.69z M-214.35,383.76l-5.82-6.07l0.66-0.69
		l5.83,6.05L-214.35,383.76z"/>
	<path class="st0" d="M-210.52,383.76v-6.5c-0.39,0.26-1.17,0.55-1.6,0.62v-0.93c0.64-0.16,1.4-0.6,1.92-1.12h0.88v7.92H-210.52z"/>
	<path class="st0" d="M-207.64,383.76v-1.84h1.24v1.84H-207.64z"/>
	<path class="st0" d="M-200.01,376.88h-3.27c-0.07,0.59-0.25,1.71-0.33,2.11c0.33-0.35,0.83-0.59,1.61-0.59
		c1.47,0,2.39,1.03,2.39,2.62c0,1.54-0.81,2.89-2.77,2.89c-1.44,0-2.48-0.78-2.68-2.14h1.19c0.18,0.69,0.67,1.18,1.53,1.18
		c1.02,0,1.53-0.73,1.53-1.84c0-0.98-0.4-1.72-1.46-1.72c-0.91,0-1.29,0.38-1.55,0.99l-1.09-0.18c0.23-1.03,0.54-3.3,0.66-4.31h4.41
		L-200.01,376.88z"/>
</g>
<g>
	<g>
		
			<rect x="61.64" y="10.28" transform="matrix(0.8586 -0.5126 0.5126 0.8586 3.7401 36.091)" class="st1" width="11.32" height="1.97"/>
		<polygon class="st1" points="70.72,11.16 77.52,15.23 77.62,15.3 78.63,13.61 72.64,10.01 		"/>
		<polygon class="st1" points="71.25,13.36 69.28,13.36 69.28,15.93 61.21,15.93 61.21,17.9 79.39,17.9 79.39,15.93 71.25,15.93 		
			"/>
		<polygon class="st1" points="63.2,20.92 75.42,20.92 75.42,22.11 63.2,22.11 63.2,26.86 77.39,26.86 77.39,25.08 65.17,25.08 
			65.17,23.89 77.39,23.89 77.39,19.15 63.2,19.15 		"/>
		<polygon class="st1" points="82.83,12.45 82.83,18.39 96.97,18.39 96.97,16.42 84.8,16.42 84.8,14.42 96.69,14.42 96.69,8.61 
			82.83,8.61 82.83,10.58 94.72,10.58 94.72,12.45 		"/>
		<polygon class="st1" points="80.67,21.84 88.77,21.84 88.77,26.88 90.74,26.88 90.74,21.84 98.85,21.84 98.85,19.87 80.67,19.87 
					"/>
		
			<rect x="97.75" y="13.08" transform="matrix(0.5785 -0.8157 0.8157 0.5785 32.3387 90.7175)" class="st1" width="12.39" height="1.97"/>
		<polygon class="st1" points="111.11,19.16 111.19,19.26 112.71,18.01 107.59,11.79 106.41,13.46 		"/>
		<polygon class="st1" points="116.27,8.04 116.27,10.98 112.41,10.98 112.41,12.95 116.27,12.95 116.27,14.48 112.41,14.48 
			112.41,16.45 116.27,16.45 116.27,21.93 118.24,21.93 118.24,8.04 		"/>
		<rect x="57.14" y="8.02" class="st1" width="1.97" height="18.77"/>
		<polygon class="st1" points="43.91,17.06 52.71,17.06 52.71,15.09 43.91,15.09 43.91,11.98 52.71,11.98 52.71,10.02 41.99,10.02 
			41.99,22.96 52.71,22.96 52.71,20.99 43.91,20.99 		"/>
		<polygon class="st1" points="106.27,20.59 104.3,20.59 104.3,26.86 118.35,26.86 118.35,24.89 106.27,24.89 		"/>
	</g>
	<g>
		<path class="st2" d="M18.94,0.2C9.69,0.2,2.19,7.7,2.19,16.95c0,4.94,2.14,9.39,5.55,12.45c0.5,0.44,1.15,0.71,1.87,0.71h0.75
			c2.38,0,4.41,1.49,5.21,3.59c0.56-2.96,3.16-5.2,6.29-5.2h7.96c0.87,0,1.66-0.4,2.17-1.03c2.32-2.87,3.71-6.53,3.71-10.51
			C35.69,7.7,28.19,0.2,18.94,0.2z"/>
		<g>
			<polygon class="st3" points="16.25,17.56 16.25,18.56 21.16,18.56 21.16,20.75 22.43,20.75 22.43,17.56 			"/>
			<polygon class="st3" points="23.88,13.96 22.43,13.96 22.43,12.05 21.16,12.05 21.16,17.27 22.43,17.27 22.43,14.97 23.88,14.97 
							"/>
			<path class="st3" d="M19.73,14.61c0-0.5-0.2-0.97-0.53-1.34h0.99v-0.99h-2.53v-0.72h-1.26v0.72h-2.46v0.99h0.91
				c-0.33,0.37-0.52,0.82-0.52,1.34c0,1.28,1.21,2.23,2.7,2.23C18.52,16.84,19.73,15.86,19.73,14.61 M15.54,14.6
				c0-0.77,0.66-1.28,1.48-1.28c0.82,0,1.48,0.52,1.48,1.28c0,0.76-0.66,1.3-1.48,1.3C16.21,15.9,15.54,15.37,15.54,14.6"/>
			<rect x="11.3" y="12.05" class="st3" width="1.26" height="8.69"/>
			<polygon class="st3" points="9.35,12.15 4.6,12.15 4.6,13.15 7.86,13.15 4.23,17.44 5.19,18.24 9.35,13.15 			"/>
			<polygon class="st3" points="6.82,16.75 9.15,18.24 9.83,17.17 7.61,15.79 			"/>
			<polygon class="st3" points="26.48,16.7 28.89,18.24 29.56,17.17 27.2,15.71 			"/>
			<polygon class="st3" points="28.02,12.02 23.94,17.49 24.96,18.24 28.96,12.71 			"/>
			<polygon class="st3" points="33.86,14.18 32.3,14.18 32.3,12.05 31.04,12.05 31.04,20.75 32.3,20.75 32.3,15.18 33.86,15.18 			
				"/>
		</g>
	</g>
</g>
<line class="st4" x1="-261.1" y1="452.34" x2="457.19" y2="452.34"/>
<g>
	<path d="M126.54,308.45c-0.6,0-1.14-0.14-1.61-0.41c-0.47-0.28-0.85-0.67-1.13-1.19c-0.28-0.52-0.42-1.14-0.42-1.87
		c0-0.74,0.15-1.36,0.46-1.88c0.3-0.52,0.7-0.91,1.2-1.18s1.03-0.41,1.61-0.41c0.42,0,0.79,0.07,1.1,0.22
		c0.31,0.14,0.59,0.32,0.83,0.54l-0.68,0.9c-0.18-0.16-0.36-0.29-0.55-0.38c-0.19-0.09-0.4-0.14-0.62-0.14
		c-0.37,0-0.7,0.1-0.98,0.29c-0.29,0.2-0.51,0.47-0.68,0.82s-0.25,0.75-0.25,1.22s0.08,0.87,0.24,1.22
		c0.16,0.35,0.38,0.62,0.66,0.81c0.28,0.19,0.6,0.29,0.96,0.29c0.28,0,0.54-0.06,0.78-0.17c0.24-0.12,0.46-0.26,0.66-0.43l0.58,0.92
		c-0.3,0.27-0.64,0.48-1.02,0.62S126.92,308.45,126.54,308.45z"/>
	<path d="M135.15,308.45c-0.59,0-1.1-0.17-1.53-0.52c-0.43-0.35-0.76-0.86-0.99-1.52c-0.23-0.67-0.35-1.49-0.35-2.45
		c0-0.97,0.12-1.78,0.35-2.44c0.23-0.66,0.56-1.15,0.99-1.49c0.43-0.34,0.94-0.5,1.53-0.5c0.58,0,1.09,0.17,1.51,0.5
		c0.42,0.34,0.75,0.83,0.98,1.49c0.23,0.66,0.35,1.47,0.35,2.44c0,0.97-0.12,1.79-0.35,2.45c-0.23,0.67-0.56,1.18-0.98,1.52
		C136.24,308.27,135.73,308.45,135.15,308.45z M135.15,307.34c0.3,0,0.56-0.11,0.79-0.34c0.23-0.22,0.41-0.58,0.54-1.08
		c0.13-0.5,0.19-1.16,0.19-1.98c0-0.82-0.06-1.48-0.19-1.96c-0.13-0.48-0.31-0.83-0.54-1.05c-0.23-0.22-0.5-0.32-0.79-0.32
		c-0.3,0-0.56,0.11-0.79,0.32c-0.23,0.22-0.41,0.57-0.55,1.05c-0.13,0.48-0.2,1.14-0.2,1.96c0,0.82,0.07,1.48,0.2,1.98
		c0.13,0.5,0.31,0.86,0.55,1.08C134.59,307.23,134.85,307.34,135.15,307.34z"/>
	<path d="M143.04,303.72c-0.26,0-0.47-0.09-0.65-0.27c-0.18-0.18-0.27-0.41-0.27-0.69c0-0.29,0.09-0.52,0.27-0.71
		c0.18-0.18,0.4-0.28,0.65-0.28c0.26,0,0.49,0.09,0.67,0.28c0.18,0.18,0.27,0.42,0.27,0.71c0,0.28-0.09,0.51-0.27,0.69
		C143.53,303.63,143.31,303.72,143.04,303.72z M143.04,308.45c-0.26,0-0.47-0.09-0.65-0.28c-0.18-0.19-0.27-0.42-0.27-0.7
		c0-0.29,0.09-0.52,0.27-0.7c0.18-0.18,0.4-0.27,0.65-0.27c0.26,0,0.49,0.09,0.67,0.27c0.18,0.18,0.27,0.41,0.27,0.7
		c0,0.28-0.09,0.51-0.27,0.7C143.53,308.35,143.31,308.45,143.04,308.45z"/>
	<path d="M148.58,308.28v-6.61h1.13l0.12,0.94h0.02c0.29-0.3,0.6-0.56,0.93-0.77c0.33-0.21,0.71-0.32,1.12-0.32
		c0.49,0,0.88,0.11,1.16,0.32c0.29,0.21,0.5,0.51,0.65,0.89c0.33-0.35,0.67-0.64,1.01-0.87c0.35-0.23,0.73-0.34,1.13-0.34
		c0.69,0,1.2,0.23,1.53,0.68s0.5,1.1,0.5,1.94v4.15h-1.39v-3.98c0-0.57-0.09-0.97-0.26-1.22c-0.18-0.24-0.45-0.37-0.83-0.37
		c-0.22,0-0.46,0.07-0.7,0.22s-0.51,0.37-0.79,0.67v4.68h-1.38v-3.98c0-0.57-0.09-0.97-0.26-1.22c-0.18-0.24-0.46-0.37-0.84-0.37
		c-0.22,0-0.45,0.07-0.7,0.22c-0.25,0.14-0.51,0.37-0.78,0.67v4.68H148.58z"/>
	<path d="M164.98,308.45c-0.59,0-1.1-0.17-1.53-0.52c-0.43-0.35-0.76-0.86-0.99-1.52c-0.23-0.67-0.35-1.49-0.35-2.45
		c0-0.97,0.12-1.78,0.35-2.44c0.23-0.66,0.56-1.15,0.99-1.49c0.43-0.34,0.94-0.5,1.53-0.5c0.58,0,1.09,0.17,1.51,0.5
		c0.42,0.34,0.75,0.83,0.98,1.49c0.23,0.66,0.35,1.47,0.35,2.44c0,0.97-0.12,1.79-0.35,2.45c-0.23,0.67-0.56,1.18-0.98,1.52
		C166.07,308.27,165.56,308.45,164.98,308.45z M164.98,307.34c0.3,0,0.56-0.11,0.79-0.34c0.23-0.22,0.41-0.58,0.54-1.08
		c0.13-0.5,0.19-1.16,0.19-1.98c0-0.82-0.06-1.48-0.19-1.96c-0.13-0.48-0.31-0.83-0.54-1.05c-0.23-0.22-0.5-0.32-0.79-0.32
		c-0.3,0-0.56,0.11-0.79,0.32c-0.23,0.22-0.41,0.57-0.55,1.05c-0.13,0.48-0.2,1.14-0.2,1.96c0,0.82,0.07,1.48,0.2,1.98
		c0.13,0.5,0.31,0.86,0.55,1.08C164.42,307.23,164.68,307.34,164.98,307.34z"/>
	<path d="M172.87,303.72c-0.26,0-0.47-0.09-0.65-0.27c-0.18-0.18-0.27-0.41-0.27-0.69c0-0.29,0.09-0.52,0.27-0.71
		c0.18-0.18,0.4-0.28,0.65-0.28c0.26,0,0.49,0.09,0.67,0.28c0.18,0.18,0.27,0.42,0.27,0.71c0,0.28-0.09,0.51-0.27,0.69
		C173.36,303.63,173.14,303.72,172.87,303.72z M172.87,308.45c-0.26,0-0.47-0.09-0.65-0.28c-0.18-0.19-0.27-0.42-0.27-0.7
		c0-0.29,0.09-0.52,0.27-0.7c0.18-0.18,0.4-0.27,0.65-0.27c0.26,0,0.49,0.09,0.67,0.27c0.18,0.18,0.27,0.41,0.27,0.7
		c0,0.28-0.09,0.51-0.27,0.7C173.36,308.35,173.14,308.45,172.87,308.45z"/>
	<path d="M178.72,311.04c-0.18,0-0.33-0.01-0.46-0.04s-0.26-0.06-0.38-0.1l0.26-1.08c0.06,0.02,0.14,0.04,0.23,0.06
		s0.18,0.04,0.26,0.04c0.36,0,0.65-0.12,0.86-0.35c0.22-0.24,0.38-0.53,0.5-0.88l0.14-0.46l-2.62-6.56h1.4l1.21,3.41
		c0.1,0.3,0.21,0.6,0.31,0.92c0.1,0.32,0.2,0.63,0.31,0.94h0.06c0.08-0.3,0.16-0.62,0.25-0.94c0.09-0.32,0.18-0.63,0.26-0.92
		l1.07-3.41h1.33l-2.42,7.01c-0.17,0.47-0.37,0.89-0.59,1.24c-0.23,0.36-0.5,0.63-0.82,0.83
		C179.57,310.94,179.18,311.04,178.72,311.04z"/>
	<path d="M190.02,308.45c-0.59,0-1.1-0.17-1.53-0.52c-0.43-0.35-0.76-0.86-0.99-1.52c-0.23-0.67-0.35-1.49-0.35-2.45
		c0-0.97,0.12-1.78,0.35-2.44c0.23-0.66,0.56-1.15,0.99-1.49c0.43-0.34,0.94-0.5,1.53-0.5c0.58,0,1.09,0.17,1.51,0.5
		c0.42,0.34,0.75,0.83,0.98,1.49c0.23,0.66,0.35,1.47,0.35,2.44c0,0.97-0.12,1.79-0.35,2.45c-0.23,0.67-0.56,1.18-0.98,1.52
		C191.11,308.27,190.61,308.45,190.02,308.45z M190.02,307.34c0.3,0,0.56-0.11,0.79-0.34c0.23-0.22,0.41-0.58,0.54-1.08
		c0.13-0.5,0.19-1.16,0.19-1.98c0-0.82-0.06-1.48-0.19-1.96c-0.13-0.48-0.31-0.83-0.54-1.05c-0.23-0.22-0.5-0.32-0.79-0.32
		c-0.3,0-0.56,0.11-0.79,0.32c-0.23,0.22-0.41,0.57-0.55,1.05c-0.13,0.48-0.2,1.14-0.2,1.96c0,0.82,0.07,1.48,0.2,1.98
		c0.13,0.5,0.31,0.86,0.55,1.08C189.46,307.23,189.73,307.34,190.02,307.34z"/>
	<path d="M197.92,303.72c-0.26,0-0.47-0.09-0.65-0.27c-0.18-0.18-0.27-0.41-0.27-0.69c0-0.29,0.09-0.52,0.27-0.71
		c0.18-0.18,0.4-0.28,0.65-0.28c0.26,0,0.49,0.09,0.67,0.28c0.18,0.18,0.27,0.42,0.27,0.71c0,0.28-0.09,0.51-0.27,0.69
		C198.4,303.63,198.18,303.72,197.92,303.72z M197.92,308.45c-0.26,0-0.47-0.09-0.65-0.28c-0.18-0.19-0.27-0.42-0.27-0.7
		c0-0.29,0.09-0.52,0.27-0.7c0.18-0.18,0.4-0.27,0.65-0.27c0.26,0,0.49,0.09,0.67,0.27c0.18,0.18,0.27,0.41,0.27,0.7
		c0,0.28-0.09,0.51-0.27,0.7C198.4,308.35,198.18,308.45,197.92,308.45z"/>
	<path d="M203.45,308.28v-9.56h1.36v6.16h0.05l2.56-3.2h1.54l-2.23,2.7l2.48,3.91h-1.5l-1.79-2.99l-1.1,1.27v1.72H203.45z"/>
	<path d="M214.89,308.45c-0.5,0-0.94-0.09-1.3-0.28c-0.36-0.19-0.67-0.41-0.92-0.67l0.76-0.86c0.16,0.2,0.37,0.36,0.62,0.48
		s0.51,0.18,0.77,0.18c0.38,0,0.74-0.11,1.06-0.34c0.32-0.22,0.58-0.6,0.77-1.13c0.19-0.53,0.29-1.24,0.29-2.14
		c0-0.71-0.07-1.3-0.22-1.76s-0.35-0.8-0.61-1.02c-0.26-0.22-0.57-0.33-0.93-0.33c-0.26,0-0.49,0.07-0.7,0.2
		c-0.21,0.14-0.37,0.33-0.49,0.59s-0.18,0.57-0.18,0.94c0,0.35,0.05,0.65,0.16,0.9s0.27,0.44,0.49,0.56
		c0.22,0.13,0.49,0.19,0.8,0.19c0.26,0,0.53-0.09,0.83-0.26c0.3-0.18,0.58-0.47,0.85-0.88l0.06,1.02c-0.17,0.23-0.37,0.43-0.59,0.6
		s-0.46,0.3-0.7,0.38c-0.24,0.09-0.47,0.13-0.7,0.13c-0.5,0-0.93-0.1-1.3-0.29c-0.37-0.2-0.66-0.49-0.88-0.88s-0.32-0.88-0.32-1.48
		c0-0.57,0.12-1.06,0.37-1.48c0.24-0.42,0.57-0.74,0.97-0.97c0.4-0.23,0.84-0.35,1.31-0.35c0.42,0,0.82,0.08,1.19,0.25
		s0.7,0.43,0.97,0.77c0.28,0.35,0.49,0.78,0.65,1.3s0.24,1.14,0.24,1.85c0,0.84-0.09,1.56-0.27,2.17c-0.18,0.6-0.43,1.1-0.74,1.48
		s-0.67,0.66-1.07,0.84S215.32,308.45,214.89,308.45z"/>
	<path d="M222.28,308.45c-0.59,0-1.1-0.17-1.53-0.52c-0.43-0.35-0.76-0.86-0.99-1.52c-0.23-0.67-0.35-1.49-0.35-2.45
		c0-0.97,0.12-1.78,0.35-2.44c0.23-0.66,0.56-1.15,0.99-1.49c0.43-0.34,0.94-0.5,1.53-0.5c0.58,0,1.09,0.17,1.51,0.5
		c0.42,0.34,0.75,0.83,0.98,1.49c0.23,0.66,0.35,1.47,0.35,2.44c0,0.97-0.12,1.79-0.35,2.45c-0.23,0.67-0.56,1.18-0.98,1.52
		C223.37,308.27,222.86,308.45,222.28,308.45z M222.28,307.34c0.3,0,0.56-0.11,0.79-0.34c0.23-0.22,0.41-0.58,0.54-1.08
		c0.13-0.5,0.19-1.16,0.19-1.98c0-0.82-0.06-1.48-0.19-1.96c-0.13-0.48-0.31-0.83-0.54-1.05c-0.23-0.22-0.5-0.32-0.79-0.32
		c-0.3,0-0.56,0.11-0.79,0.32c-0.23,0.22-0.41,0.57-0.55,1.05c-0.13,0.48-0.2,1.14-0.2,1.96c0,0.82,0.07,1.48,0.2,1.98
		c0.13,0.5,0.31,0.86,0.55,1.08C221.72,307.23,221.98,307.34,222.28,307.34z"/>
</g>
<line class="st4" x1="167.82" y1="318.16" x2="167.82" y2="354.94"/>
<g>
	<path d="M-257.65,376.31h4.17v3.39h-3.11v2.25h-1.04v-3.09h3.11v-1.7h-3.13V376.31z M-257.63,381.61h0.75
		c0.55,0,1.05-0.01,1.52-0.02c0.46-0.01,0.91-0.04,1.35-0.09c0.44-0.05,0.89-0.11,1.34-0.19l0.1,0.86
		c-0.47,0.08-0.93,0.14-1.38,0.19c-0.44,0.05-0.9,0.08-1.38,0.1s-0.99,0.02-1.55,0.02h-0.75V381.61z M-251.96,375.49h1.05v9.16
		h-1.05V375.49z M-251.15,379.04h1.65v0.87h-1.65V379.04z"/>
	<path d="M-246.2,376.11c0.46,0,0.87,0.1,1.24,0.29s0.66,0.46,0.87,0.81s0.32,0.74,0.32,1.19c0,0.44-0.11,0.83-0.32,1.18
		c-0.21,0.35-0.5,0.62-0.87,0.81c-0.37,0.19-0.78,0.29-1.24,0.29s-0.87-0.1-1.24-0.29c-0.37-0.19-0.66-0.46-0.87-0.81
		c-0.21-0.35-0.32-0.74-0.32-1.18c0-0.45,0.11-0.84,0.32-1.19c0.21-0.34,0.5-0.61,0.87-0.81S-246.66,376.11-246.2,376.11z
		 M-246.2,377.02c-0.27,0-0.51,0.06-0.72,0.17c-0.21,0.11-0.38,0.27-0.5,0.48c-0.12,0.2-0.18,0.44-0.18,0.73
		c0,0.28,0.06,0.52,0.18,0.73c0.12,0.2,0.29,0.36,0.5,0.47c0.21,0.11,0.45,0.17,0.72,0.17s0.51-0.06,0.72-0.17
		c0.21-0.11,0.38-0.27,0.51-0.47c0.12-0.2,0.19-0.45,0.19-0.73c0-0.28-0.06-0.52-0.19-0.73c-0.12-0.2-0.29-0.36-0.51-0.48
		C-245.69,377.07-245.93,377.02-246.2,377.02z M-247.23,381.46h1.04v2.47h-1.04V381.46z M-247.23,383.6h6.22v0.85h-6.22V383.6z
		 M-242.32,375.5h1.05v6.63h-1.05V375.5z"/>
	<path d="M-239.6,380.72h8.28v0.86h-8.28V380.72z M-238.5,376.01h6.06v0.84h-5v2.38h-1.06V376.01z M-238.5,378.82h6.18v0.84h-6.18
		V378.82z M-236.01,381.2h1.04v3.41h-1.04V381.2z"/>
	<path d="M-229.05,376.56h0.88c0,0.53-0.02,1.06-0.06,1.58s-0.11,1.04-0.22,1.55c-0.11,0.51-0.26,1.01-0.45,1.49
		s-0.44,0.95-0.74,1.4l-0.82-0.46c0.3-0.41,0.54-0.83,0.72-1.26c0.18-0.43,0.32-0.87,0.42-1.32c0.1-0.45,0.17-0.92,0.21-1.4
		s0.06-0.98,0.06-1.49V376.56z M-230.22,376.56h1.71v0.86h-1.71V376.56z M-227.03,376.56h0.89c0,0.53-0.02,1.08-0.05,1.64
		c-0.03,0.56-0.09,1.12-0.19,1.69s-0.24,1.12-0.44,1.66c-0.2,0.54-0.46,1.06-0.79,1.56l-0.81-0.47c0.25-0.36,0.46-0.73,0.64-1.12
		c0.17-0.39,0.31-0.78,0.41-1.19s0.18-0.81,0.23-1.22c0.05-0.41,0.08-0.82,0.1-1.23c0.02-0.41,0.02-0.82,0.02-1.23V376.56z
		 M-227.88,376.56h1.43v0.86h-1.43V376.56z M-226.58,379.01h1.49v0.85h-1.49V379.01z M-225.27,375.71h0.98v8.48h-0.98V375.71z
		 M-223.55,375.5h1v9.14h-1V375.5z"/>
</g>
<g>
	<g>
		
			<rect x="332.77" y="369.82" transform="matrix(0.8586 -0.5126 0.5126 0.8586 -142.0792 227.4098)" class="st1" width="16.96" height="2.95"/>
		<polygon class="st1" points="346.37,371.13 356.56,377.24 356.71,377.33 358.23,374.8 349.25,369.42 		"/>
		<polygon class="st1" points="347.17,374.43 344.22,374.43 344.22,378.29 332.13,378.29 332.13,381.24 359.37,381.24 
			359.37,378.29 347.17,378.29 		"/>
		<polygon class="st1" points="335.11,385.77 353.42,385.77 353.42,387.55 335.11,387.55 335.11,394.66 356.36,394.66 356.36,392 
			338.06,392 338.06,390.22 356.37,390.22 356.37,383.1 335.11,383.1 		"/>
		<polygon class="st1" points="364.51,373.07 364.52,381.96 385.71,381.96 385.71,379.01 367.47,379.01 367.47,376.02 
			385.29,376.02 385.29,367.31 364.51,367.31 364.51,370.26 382.34,370.26 382.34,373.07 		"/>
		<polygon class="st1" points="361.28,387.14 373.43,387.14 373.43,394.69 376.38,394.69 376.38,387.14 388.53,387.14 
			388.53,384.18 361.28,384.18 		"/>
		
			<rect x="386.88" y="374.02" transform="matrix(0.5785 -0.8157 0.8157 0.5785 -139.2977 481.4217)" class="st1" width="18.57" height="2.95"/>
		<polygon class="st1" points="406.9,383.13 407.02,383.27 409.3,381.4 401.63,372.08 399.86,374.58 		"/>
		<polygon class="st1" points="414.63,366.46 414.63,370.86 408.86,370.86 408.86,373.82 414.63,373.82 414.63,376.11 
			408.86,376.11 408.86,379.06 414.63,379.06 414.63,387.27 417.59,387.27 417.59,366.46 		"/>
		<rect x="326.02" y="366.42" class="st1" width="2.95" height="28.13"/>
		<polygon class="st1" points="306.19,379.97 319.38,379.97 319.38,377.02 306.19,377.02 306.19,372.37 319.38,372.37 
			319.38,369.42 303.31,369.42 303.31,388.81 319.39,388.81 319.39,385.86 306.19,385.86 		"/>
		<polygon class="st1" points="399.65,385.26 396.7,385.26 396.7,394.66 417.76,394.66 417.76,391.71 399.65,391.71 		"/>
	</g>
	<g>
		<path class="st2" d="M360.43,322.79c-10.66,0-19.29,8.64-19.29,19.29c0,5.69,2.47,10.81,6.39,14.34c0.57,0.51,1.33,0.82,2.15,0.82
			h0.86c2.74,0,5.08,1.72,6,4.13c0.65-3.41,3.64-5.99,7.24-5.99h9.16c1.01,0,1.91-0.46,2.5-1.19c2.67-3.31,4.28-7.52,4.28-12.11
			C379.72,331.42,371.08,322.79,360.43,322.79z"/>
		<g>
			<polygon class="st3" points="357.33,342.79 357.33,343.93 362.99,343.93 362.99,346.45 364.45,346.45 364.45,342.79 			"/>
			<polygon class="st3" points="366.12,338.64 364.45,338.64 364.45,336.44 362.99,336.44 362.99,342.44 364.45,342.44 
				364.45,339.79 366.12,339.79 			"/>
			<path class="st3" d="M361.34,339.38c0-0.58-0.23-1.11-0.61-1.54h1.14v-1.14h-2.91v-0.83h-1.46v0.83h-2.84v1.14h1.05
				c-0.37,0.42-0.6,0.95-0.6,1.54c0,1.48,1.39,2.57,3.11,2.57C359.94,341.95,361.34,340.82,361.34,339.38 M356.52,339.37
				c0-0.89,0.76-1.47,1.7-1.47c0.94,0,1.7,0.59,1.7,1.47c0,0.88-0.76,1.5-1.7,1.5C357.28,340.87,356.52,340.26,356.52,339.37"/>
			<rect x="351.63" y="336.44" class="st3" width="1.46" height="10.02"/>
			<polygon class="st3" points="349.39,336.55 343.92,336.55 343.92,337.71 347.66,337.71 343.49,342.64 344.59,343.56 
				349.39,337.71 			"/>
			<polygon class="st3" points="346.47,341.84 349.16,343.56 349.93,342.33 347.37,340.75 			"/>
			<polygon class="st3" points="369.12,341.79 371.89,343.56 372.66,342.33 369.95,340.65 			"/>
			<polygon class="st3" points="370.89,336.4 366.2,342.7 367.37,343.56 371.97,337.19 			"/>
			<polygon class="st3" points="377.61,338.89 375.82,338.89 375.82,336.44 374.36,336.44 374.36,346.45 375.82,346.45 
				375.82,340.04 377.61,340.04 			"/>
		</g>
	</g>
</g>
</svg>
